<?xml version="1.0" encoding="UTF-8"?>
<svg id="Camada_1" data-name="Camada 1" xmlns="http://www.w3.org/2000/svg" viewBox="0 0 1080 1080">
  <defs>
    <style>
      .cls-1 {
        fill: #ec6c1e;
        stroke-width: 0px;
      }
    </style>
  </defs>
  <g>
    <path class="cls-1" d="m300.65,492.05l-.29-.6h-33.33l-6.14,12.73-1.19,2.46-.16.32-.45.92c-.04.09-.09.17-.12.26-.24.49-.47.96-.72,1.45-1.54,3.18-3.06,6.36-4.6,9.54-2.43,5.01-4.85,10-7.26,15-.39.79-.76,1.6-1.15,2.39-1.45,2.99-2.89,6-4.34,8.99-.55,1.21-1.14,2.36-1.77,3.48-1.06,2.93-2.66,5.62-4.67,7.94-.29.33-.58.65-.88.96-4.66,4.88-11.2,7.9-18.47,7.9-8.59,0-16.2-4.24-20.81-10.76-.2-.26-.37-.52-.55-.78l-10.03,20.22-.66,1.35-.53,1.06c.37.35.76.68,1.17.99,3.5,2.91,7.54,5.24,12.04,6.95.55.2,1.09.4,1.65.59,5.47,1.86,11.54,2.85,18.07,2.91.24.01.47.01.72.01,1.37,0,2.72-.04,4.06-.13,4.06-.23,7.95-.82,11.64-1.74.01,0,.03-.01.04-.01,6.88-1.71,13.03-4.56,18.3-8.36,1.45-1.04,2.83-2.16,4.14-3.34,1.41-1.28,2.73-2.63,3.97-4.06.32-.36.62-.73.93-1.11,1.08-1.32,2.09-2.72,3.01-4.16l4.88-10.1,4.59-9.52,11.25-23.33.55,1.15.78,1.7,29.53,63.22h33.31l-46.49-96.5Z"/>
    <path class="cls-1" d="m134.99,587.95l.29.6h33.33s6.14-12.73,6.14-12.73l1.19-2.46.16-.32.45-.92c.04-.09.09-.17.12-.26.24-.49.47-.96.72-1.45,1.54-3.18,3.06-6.36,4.6-9.54,2.43-5.01,4.85-10,7.26-15,.39-.79.76-1.6,1.15-2.39,1.45-2.99,2.89-6,4.34-8.99.55-1.21,1.14-2.36,1.77-3.48,1.06-2.93,2.66-5.62,4.67-7.94.29-.33.58-.65.88-.96,4.66-4.88,11.2-7.9,18.47-7.9,8.59,0,16.2,4.24,20.81,10.76.2.26.37.52.55.78l10.03-20.22.66-1.35.53-1.06c-.37-.35-.76-.68-1.17-.99-3.5-2.91-7.54-5.24-12.04-6.95-.55-.2-1.09-.4-1.65-.59-5.47-1.86-11.54-2.85-18.07-2.91-.24-.01-.47-.01-.72-.01-1.37,0-2.72.04-4.06.13-4.06.23-7.95.82-11.64,1.74-.01,0-.03.01-.04.01-6.88,1.71-13.03,4.56-18.3,8.36-1.45,1.04-2.83,2.16-4.14,3.34-1.41,1.28-2.73,2.63-3.97,4.06-.32.36-.62.73-.93,1.11-1.08,1.32-2.09,2.72-3.01,4.16l-4.88,10.1-4.59,9.52-11.25,23.33-.55-1.15-.78-1.7-29.53-63.22h-33.31s46.49,96.5,46.49,96.5Z"/>
  </g>
  <g>
    <path class="cls-1" d="m409.28,579.57l-42.81-73.91h15.81l33.05,57.48,33.16-57.48h15.71l-42.81,73.91h-12.11Z"/>
    <path class="cls-1" d="m471.89,514.08v-13.55h13.45v13.55h-13.45Zm0,65.49v-59.54h13.45v59.54h-13.45Z"/>
    <path class="cls-1" d="m503.3,577.62c-2.12-1.3-3.83-3.01-5.13-5.13-1.3-2.12-1.95-4.48-1.95-7.08v-63.64h13.45v18.27h23.2v13.45h-23.2v31.41c0,.34.12.63.36.87.24.24.53.36.87.36h21.97v13.45h-22.48c-2.6,0-4.96-.65-7.08-1.95Z"/>
    <path class="cls-1" d="m548.98,577.62c-2.12-1.3-3.83-3.01-5.13-5.13-1.3-2.12-1.95-4.48-1.95-7.08v-63.64h13.45v18.27h23.2v13.45h-23.2v31.41c0,.34.12.63.36.87.24.24.53.36.87.36h21.97v13.45h-22.48c-2.6,0-4.96-.65-7.08-1.95Z"/>
    <path class="cls-1" d="m603.07,579.57c-2.6,0-4.98-.65-7.13-1.95-2.15-1.3-3.87-3.01-5.13-5.13-1.27-2.12-1.9-4.48-1.9-7.08v-22.38h47.01v-8.31c0-.34-.12-.63-.36-.87-.24-.24-.53-.36-.87-.36h-45.78v-13.45h46.3c2.6,0,4.98.65,7.13,1.95,2.15,1.3,3.87,3.01,5.13,5.13,1.27,2.12,1.9,4.48,1.9,7.08v45.37h-46.3Zm.51-13.45h32.33v-10.98h-33.57v9.75c0,.34.12.63.36.87.24.24.53.36.87.36Z"/>
    <path class="cls-1" d="m706.24,579.57c-2.6,0-4.98-.65-7.13-1.95-2.16-1.3-3.89-3.03-5.18-5.18-1.3-2.16-1.95-4.53-1.95-7.13v-45.37c0-2.6.65-4.98,1.95-7.13,1.3-2.16,3.03-3.88,5.18-5.18,2.15-1.3,4.53-1.95,7.13-1.95h59.43v13.65h-56.56c-1.1,0-1.97.31-2.62.92s-.97,1.51-.97,2.67v39.42c0,1.1.32,1.97.97,2.62.65.65,1.52.98,2.62.98h56.56v13.65h-59.43Z"/>
    <path class="cls-1" d="m783.02,577.62c-2.12-1.3-3.83-3.01-5.13-5.13-1.3-2.12-1.95-4.48-1.95-7.08v-64.98h13.55v64.46c0,.34.12.63.36.87.24.24.53.36.87.36h11.39v13.45h-12.01c-2.6,0-4.96-.65-7.08-1.95Z"/>
    <path class="cls-1" d="m811.56,514.08v-13.55h13.45v13.55h-13.45Zm0,65.49v-59.54h13.45v59.54h-13.45Z"/>
    <path class="cls-1" d="m836.91,579.57v-59.54h46.3c2.6,0,4.98.65,7.13,1.95,2.15,1.3,3.87,3.01,5.13,5.13,1.27,2.12,1.9,4.48,1.9,7.08v45.37h-13.45v-44.86c0-.34-.12-.63-.36-.87-.24-.24-.53-.36-.87-.36h-31.1c-.34,0-.63.12-.87.36-.24.24-.36.53-.36.87v44.86h-13.45Z"/>
    <path class="cls-1" d="m908.15,514.08v-13.55h13.45v13.55h-13.45Zm0,65.49v-59.54h13.45v59.54h-13.45Z"/>
    <path class="cls-1" d="m938.12,577.62c-2.12-1.3-3.83-3.01-5.13-5.13-1.3-2.12-1.95-4.48-1.95-7.08v-31.21c0-2.6.65-4.96,1.95-7.08,1.3-2.12,3.01-3.83,5.13-5.13,2.12-1.3,4.48-1.95,7.08-1.95h46.19v13.45h-45.68c-.34,0-.63.12-.87.36-.24.24-.36.53-.36.87v30.18c0,.34.12.63.36.87.24.24.53.36.87.36h45.78v13.45h-46.3c-2.6,0-4.96-.65-7.08-1.95Z"/>
  </g>
</svg>