<?xml version="1.0" encoding="UTF-8"?>
<svg id="Camada_1" data-name="Camada 1" xmlns="http://www.w3.org/2000/svg" viewBox="0 0 1080 1080">
  <defs>
    <style>
      .cls-1 {
        fill: #ec6c1e;
        stroke-width: 0px;
      }
    </style>
  </defs>
  <path class="cls-1" d="m796.18,374.55l-.89-1.87h-103.07l-19,39.37-3.69,7.61-.49.98-1.38,2.85c-.13.27-.27.53-.36.8-.76,1.51-1.47,2.98-2.22,4.49-4.76,9.83-9.48,19.66-14.24,29.49-7.52,15.48-14.99,30.92-22.47,46.4-1.2,2.45-2.36,4.94-3.56,7.38-4.49,9.25-8.94,18.55-13.43,27.8-1.69,3.74-3.51,7.3-5.47,10.77-3.29,9.08-8.23,17.39-14.46,24.56-.89,1.02-1.78,2-2.71,2.98-14.41,15.08-34.65,24.42-57.12,24.42-26.56,0-50.09-13.12-64.37-33.27-.62-.8-1.16-1.6-1.69-2.4l-31.01,62.55-2.05,4.18-1.65,3.29c1.16,1.07,2.36,2.09,3.6,3.07,10.81,8.99,23.31,16.19,37.23,21.49,1.69.62,3.38,1.25,5.12,1.82,16.9,5.74,35.68,8.81,55.87,8.99.76.04,1.47.04,2.22.04,4.23,0,8.41-.13,12.54-.4,12.54-.71,24.6-2.54,35.99-5.38.04,0,.09-.04.13-.04,21.26-5.29,40.3-14.1,56.59-25.85,4.49-3.2,8.76-6.67,12.81-10.32,4.36-3.96,8.45-8.14,12.28-12.54.98-1.11,1.91-2.27,2.89-3.43,3.34-4.09,6.45-8.41,9.3-12.86l15.08-31.23,14.19-29.45,34.79-72.16,1.69,3.56,2.4,5.25,91.33,195.51h103.03l-143.78-298.45Z"/>
  <path class="cls-1" d="m283.82,671.13l.89,1.87h103.07s19-39.37,19-39.37l3.69-7.61.49-.98,1.38-2.85c.13-.27.27-.53.36-.8.76-1.51,1.47-2.98,2.22-4.49,4.76-9.83,9.48-19.66,14.24-29.49,7.52-15.48,14.99-30.92,22.47-46.4,1.2-2.45,2.36-4.94,3.56-7.38,4.49-9.25,8.94-18.55,13.43-27.8,1.69-3.74,3.51-7.3,5.47-10.77,3.29-9.08,8.23-17.39,14.46-24.56.89-1.02,1.78-2,2.71-2.98,14.41-15.08,34.65-24.42,57.12-24.42,26.56,0,50.09,13.12,64.37,33.27.62.8,1.16,1.6,1.69,2.4l31.01-62.55,2.05-4.18,1.65-3.29c-1.16-1.07-2.36-2.09-3.6-3.07-10.81-8.99-23.31-16.19-37.23-21.49-1.69-.62-3.38-1.25-5.12-1.82-16.9-5.74-35.68-8.81-55.87-8.99-.76-.04-1.47-.04-2.22-.04-4.23,0-8.41.13-12.54.4-12.54.71-24.6,2.54-35.99,5.38-.04,0-.09.04-.13.04-21.26,5.29-40.3,14.1-56.59,25.85-4.49,3.2-8.76,6.67-12.81,10.32-4.36,3.96-8.45,8.14-12.28,12.54-.98,1.11-1.91,2.27-2.89,3.43-3.34,4.09-6.45,8.41-9.3,12.86l-15.08,31.23-14.19,29.45-34.79,72.16-1.69-3.56-2.4-5.25-91.33-195.51h-103.03s143.78,298.45,143.78,298.45Z"/>
</svg>